# xmcd
#
# Track frame offsets: 
#        150
#        14335
#        27705
#        41300
#        53067
#        66772
#        79185
#        93817
#        109602
#        123205
#        134397
#        148310
#        161662
#        175485
#        187435
#        203032
#        219055
#        233360
#        247310
#
# Disc length: 3485 seconds
#
# Revision: 2
# Processed by: cddbd v1.5PL3 Copyright (c) Steve Scherf et al.
# Submitted via: ExactAudioCopy v0.95a3
#
DISCID=0d0d9b13
DTITLE=Stephane Grappelli - Stephane Grappelli Vol.2
DYEAR=1900
DGENRE=Jazz
TTITLE0=Hot Lips
TTITLE1=Ain't Misbehavin'
TTITLE2=H. C. Q. Strut
TTITLE3=Swing From Paris
TTITLE4=I've Had My Moments
TTITLE5=Time On My Hands
TTITLE6=Scatter-Brain
TTITLE7=Ting-A-Ling
TTITLE8=Lying In The Hay
TTITLE9=Playmates
TTITLE10=Sweet Potato Piper
TTITLE11=Twelfth Street Rag
TTITLE12=Beat Me, Daddy, Eight To A Bar
TTITLE13=I Never Knew
TTITLE14=Body And Soul
TTITLE15=The Folks Who Live On The Hill
TTITLE16=Weep No More, My Lady
TTITLE17=That Old Black Magic
TTITLE18=Heavenly Music
EXTD=
EXTT0=
EXTT1=
EXTT2=
EXTT3=
EXTT4=
EXTT5=
EXTT6=
EXTT7=
EXTT8=
EXTT9=
EXTT10=
EXTT11=
EXTT12=
EXTT13=
EXTT14=
EXTT15=
EXTT16=
EXTT17=
EXTT18=
PLAYORDER=
